<svg width="60" height="60" viewBox="0 0 60 60" fill="none" xmlns="http://www.w3.org/2000/svg">
<path d="M16.875 40.5V47.8125C16.875 50.4 16.875 52.5 15 53.4375V58.125H7.5V52.3969C7.5 48.4312 9.74063 44.7844 13.2563 42.375C14.3531 41.6156 15.5625 40.9781 16.875 40.5Z" fill="#E6E9ED"/>
<path d="M30 43.125C30 43.125 30 46.875 33.75 46.875C37.5 46.875 37.5 43.125 37.5 43.125V50.625H30H22.5V43.125C22.5 43.125 22.5 46.875 26.25 46.875C30 46.875 30 43.125 30 43.125Z" fill="#E6E9ED"/>
<path d="M52.5 52.3969V58.125H45V53.4375C43.125 52.5 43.125 50.4 43.125 47.8125V40.4813C44.4469 40.9594 45.6656 41.5875 46.7625 42.3469C50.2781 44.7562 52.5 48.4125 52.5 52.3969Z" fill="#E6E9ED"/>
<path d="M45 53.4375V58.125H39.375V54.375H30H20.625V58.125H15V53.4375C16.875 52.5 16.875 50.4 16.875 47.8125V40.5C18.6094 39.8531 20.5125 39.4687 22.5 39.4031V42.1875V43.125V50.625H30H37.5V43.125V42.1875V39.4031C39.4969 39.4687 41.4 39.8437 43.125 40.4812V47.8125C43.125 50.4 43.125 52.5 45 53.4375Z" fill="#B4DD7F"/>
<path d="M22.5094 39.3844L30 43.125C30 43.125 30 46.875 26.25 46.875C22.5 46.875 22.5 43.125 22.5 43.125V42.1875V39.4031L22.5094 39.3844Z" fill="#FF826E"/>
<path d="M37.5 42.1875V43.125C37.5 43.125 37.5 46.875 33.75 46.875C30 46.875 30 43.125 30 43.125L37.4906 39.3844L37.5 39.4031V42.1875Z" fill="#FF826E"/>
<path d="M39.375 54.375V58.125H20.625V54.375H30H39.375Z" fill="#69D6F4"/>
<path d="M36.5906 35.7188L37.5 39.375L37.4906 39.3844L30 43.125L22.5094 39.3844L22.5 39.375L23.4094 35.7188C25.35 36.8531 27.6 37.5 30 37.5C32.4 37.5 34.65 36.8531 36.5906 35.7188Z" fill="#F0D0B4"/>
<path d="M29.0625 25.3125H30.9375C31.5281 25.3125 32.0812 25.5937 32.4375 26.0625L34.125 28.3125C34.4812 28.7813 35.0343 29.0625 35.625 29.0625H42.1875L42.2437 29.0906C41.1656 31.8938 39.1593 34.2375 36.5906 35.7187C34.65 36.8531 32.4 37.5 30 37.5C27.6 37.5 25.35 36.8531 23.4093 35.7187C20.8406 34.2375 18.8343 31.8938 17.7562 29.0906L17.8125 29.0625H24.375C24.9656 29.0625 25.5187 28.7813 25.875 28.3125L27.5625 26.0625C27.9187 25.5937 28.4718 25.3125 29.0625 25.3125Z" fill="#F0D0B4"/>
<path d="M22.5 39.375L22.5094 39.3844L22.5 39.4031C20.5125 39.4687 18.6094 39.8531 16.875 40.5C15.5625 40.9781 14.3531 41.6156 13.2563 42.375L13.125 42.1875V21.5625H16.875V24.375C16.875 26.0344 17.1844 27.6281 17.7563 29.0906C18.8344 31.8938 20.8406 34.2375 23.4094 35.7187L22.5 39.375Z" fill="#656D78"/>
<path d="M43.125 40.4813C41.4 39.8438 39.4969 39.4688 37.5 39.4031L37.4906 39.3844L37.5 39.375L36.5906 35.7187C39.1594 34.2375 41.1656 31.8938 42.2438 29.0906C42.8156 27.6281 43.125 26.0344 43.125 24.375V21.5625H46.875V42.1875L46.7625 42.3469C45.6656 41.5875 44.4469 40.9594 43.125 40.4813Z" fill="#656D78"/>
<path d="M16.875 21.5625H43.125V24.375C43.125 26.0344 42.8156 27.6281 42.2438 29.0906L42.1875 29.0625H35.625C35.0344 29.0625 34.4813 28.7813 34.125 28.3125L32.4375 26.0625C32.0812 25.5937 31.5281 25.3125 30.9375 25.3125H29.0625C28.4719 25.3125 27.9187 25.5937 27.5625 26.0625L25.875 28.3125C25.5188 28.7813 24.9656 29.0625 24.375 29.0625H17.8125L17.7563 29.0906C17.1844 27.6281 16.875 26.0344 16.875 24.375V21.5625Z" fill="#69D6F4"/>
<path d="M28.125 1.97812V17.8125H22.5V15.9375C22.5 13.8656 20.8219 12.1875 18.75 12.1875H14.2031C16.3969 6.69374 21.7219 2.64374 28.125 1.97812Z" fill="#FCD770"/>
<path d="M45.7969 12.1875H41.25C39.1781 12.1875 37.5 13.8656 37.5 15.9375V17.8125H31.875V1.97812C38.2781 2.64374 43.6031 6.69374 45.7969 12.1875Z" fill="#FCD770"/>
<path d="M13.125 17.8125H22.5H28.125H31.875H37.5H46.875H48.75V21.5625H46.875H43.125H16.875H13.125H11.25V17.8125H13.125Z" fill="#FFEAA7"/>
<path d="M46.875 17.8125H37.5V15.9375C37.5 13.8656 39.1781 12.1875 41.25 12.1875H45.7969C46.4906 13.9406 46.875 15.8344 46.875 17.8125Z" fill="#FFEAA7"/>
<path d="M22.5 15.9375V17.8125H13.125C13.125 15.8344 13.5094 13.9406 14.2031 12.1875H18.75C20.8219 12.1875 22.5 13.8656 22.5 15.9375Z" fill="#FFEAA7"/>
<path d="M31.875 1.97812V17.8125H28.125V1.97812C28.7438 1.9125 29.3625 1.875 30 1.875C30.6375 1.875 31.2562 1.9125 31.875 1.97812Z" fill="#FFEAA7"/>
<path d="M29.0625 28.125H30.9375V30H29.0625V28.125Z" fill="black"/>
<path d="M30 34.6875C31.5506 34.6875 32.8125 33.4256 32.8125 31.875H30.9375C30.9375 32.3916 30.5175 32.8125 30 32.8125C29.4825 32.8125 29.0625 32.3916 29.0625 31.875H27.1875C27.1875 33.4256 28.4494 34.6875 30 34.6875Z" fill="black"/>
<path d="M47.8125 41.985V22.5H49.6875V16.875H47.7628C47.2444 8.00719 39.4875 0.9375 30 0.9375C20.5125 0.9375 12.7556 8.00719 12.2372 16.875H10.3125V22.5H12.1875V41.9878C8.75156 44.5612 6.5625 48.2991 6.5625 52.395V59.0625H53.4375V52.395C53.4375 48.2972 51.2484 44.5584 47.8125 41.985ZM45.9375 40.7756C43.6875 39.5156 41.0653 38.7113 38.2509 38.5163L37.6603 36.1528C41.5088 33.6403 44.0625 29.3034 44.0625 24.375V22.5H45.9375V40.7756ZM44.0625 53.9709V57.1875H40.3125V53.4375H19.6875V57.1875H15.9375V53.9709C17.8125 52.6781 17.8125 50.3091 17.8125 47.8125V41.1609C18.9984 40.7747 20.2547 40.5084 21.5625 40.3941V51.5625H38.4375V40.3941C39.7453 40.5084 41.0016 40.7738 42.1875 41.16V47.8125C42.1875 50.31 42.1875 52.6781 44.0625 53.9709ZM38.4375 57.1875H21.5625V55.3125H38.4375V57.1875ZM42.1875 22.5V24.375C42.1875 25.6838 41.9747 26.9428 41.5912 28.125H35.625C35.3316 28.125 35.0513 27.9853 34.875 27.75L33.1875 25.5C32.6597 24.7959 31.8188 24.375 30.9375 24.375H29.0625C28.1812 24.375 27.3403 24.7959 26.8134 25.5L25.1241 27.7509C24.9487 27.9853 24.6684 28.125 24.375 28.125H18.4087C18.0253 26.9428 17.8125 25.6838 17.8125 24.375V22.5H42.1875ZM24.375 30C25.2563 30 26.0972 29.5791 26.6241 28.875L28.3134 26.6241C28.4888 26.3897 28.7691 26.25 29.0625 26.25H30.9375C31.2309 26.25 31.5112 26.3897 31.6875 26.625L33.375 28.875C33.9028 29.5791 34.7437 30 35.625 30H40.8009C38.7647 33.8944 34.6912 36.5625 30 36.5625C25.3088 36.5625 21.2353 33.8944 19.1991 30H24.375ZM23.4375 40.8919L29.0072 43.6763C28.8572 44.5303 28.3013 45.9375 26.25 45.9375C23.6034 45.9375 23.4431 43.5909 23.4375 43.1203V40.8919ZM23.4375 46.9884C24.1266 47.4834 25.0416 47.8125 26.25 47.8125C28.1194 47.8125 29.2931 47.0334 30 46.0528C30.7069 47.0334 31.8806 47.8125 33.75 47.8125C34.9584 47.8125 35.8734 47.4834 36.5625 46.9884V49.6875H23.4375V46.9884ZM33.75 45.9375C31.6987 45.9375 31.1428 44.5303 30.9928 43.6772L36.5625 40.8919V43.1194C36.5569 43.5909 36.3966 45.9375 33.75 45.9375ZM30 38.4375C32.1338 38.4375 34.1503 37.9462 35.9634 37.0922L36.4087 38.8725L30 42.0769L23.5912 38.8725L24.0366 37.0922C25.8497 37.9462 27.8662 38.4375 30 38.4375ZM45.8869 16.875H38.4375V15.9375C38.4375 14.3869 39.6994 13.125 41.25 13.125H45.1294C45.5475 14.3166 45.8006 15.5737 45.8869 16.875ZM44.3091 11.25H41.25C38.6653 11.25 36.5625 13.3528 36.5625 15.9375V16.875H32.8125V3.06094C37.8797 3.915 42.1125 7.02562 44.3091 11.25ZM30.9375 2.8575V16.875H29.0625V2.8575C29.3747 2.83969 29.6831 2.8125 30 2.8125C30.3169 2.8125 30.6253 2.83969 30.9375 2.8575ZM27.1875 3.06094V16.875H23.4375V15.9375C23.4375 13.3528 21.3347 11.25 18.75 11.25H15.6909C17.8875 7.02562 22.1203 3.915 27.1875 3.06094ZM14.8706 13.125H18.75C20.3006 13.125 21.5625 14.3869 21.5625 15.9375V16.875H14.1131C14.1994 15.5737 14.4525 14.3166 14.8706 13.125ZM12.1875 18.75H47.8125V20.625H12.1875V18.75ZM14.0625 22.5H15.9375V24.375C15.9375 29.3034 18.4913 33.6403 22.3397 36.1519L21.7491 38.5163C18.9347 38.7122 16.3125 39.5175 14.0625 40.7775V22.5ZM8.4375 52.395C8.4375 47.9541 11.4834 44.0025 15.9375 41.9091V47.8125C15.9375 50.4366 15.8747 51.9525 14.5809 52.5984L14.0625 52.8581V57.1875H8.4375V52.395ZM51.5625 57.1875H45.9375V52.8581L45.4191 52.5994C44.1253 51.9525 44.0625 50.4366 44.0625 47.8125V41.9072C48.5166 44.0006 51.5625 47.9531 51.5625 52.395V57.1875Z" fill="black"/>
<path d="M22.5 26.25C23.0178 26.25 23.4375 25.8303 23.4375 25.3125C23.4375 24.7947 23.0178 24.375 22.5 24.375C21.9822 24.375 21.5625 24.7947 21.5625 25.3125C21.5625 25.8303 21.9822 26.25 22.5 26.25Z" fill="black"/>
<path d="M37.5 26.25C38.0178 26.25 38.4375 25.8303 38.4375 25.3125C38.4375 24.7947 38.0178 24.375 37.5 24.375C36.9822 24.375 36.5625 24.7947 36.5625 25.3125C36.5625 25.8303 36.9822 26.25 37.5 26.25Z" fill="black"/>
</svg>
