<svg width="12" height="12" viewBox="0 0 12 12" fill="none" xmlns="http://www.w3.org/2000/svg">
<path d="M3.54186 0.0386485C3.038 0.0453709 2.53916 0.13985 2.06763 0.317859C1.66991 0.472223 1.3087 0.707993 1.00709 1.0101C0.705486 1.31221 0.470108 1.67402 0.315999 2.07241C0.141273 2.53865 0.046795 3.0312 0.0365891 3.5291C0.00798285 4.17015 -3.3337e-07 4.37339 -2.62239e-07 6.00067C-1.91109e-07 7.62794 -1.37382e-07 7.83652 0.0365893 8.4729C0.0468703 8.97057 0.141347 9.4629 0.316 9.92892C0.470001 10.3274 0.705341 10.6892 1.00696 10.9914C1.30858 11.2935 1.66985 11.5292 2.06764 11.6835C2.53274 11.8588 3.02436 11.9533 3.52123 11.9627C4.16188 11.9913 4.36479 12 5.98936 12C7.61393 12 7.82149 12 8.45748 11.9627C8.9551 11.9527 9.44606 11.8587 9.91241 11.6835C10.3101 11.529 10.6712 11.293 10.9727 10.9908C11.2742 10.6886 11.5094 10.3267 11.6634 9.92825C11.8451 9.4635 11.9464 8.9711 11.9627 8.47223C11.9914 7.83052 12 7.62728 12 6C12 4.37272 12 4.16415 11.9627 3.52776C11.953 3.02988 11.8587 2.5373 11.684 2.07108C11.5297 1.67279 11.2943 1.31108 10.9927 1.00899C10.6911 0.706902 10.33 0.471069 9.93236 0.316525C9.46668 0.141269 8.97572 0.0473123 8.47744 0.0373169C7.83745 0.00866283 7.63455 -3.33717e-07 6.00931 -2.62675e-07C4.38474 0.00133305 4.17851 0.0013321 3.54186 0.0386485ZM9.06154 6.00466C9.06154 7.70657 7.68511 9.0853 5.98603 9.0853C4.28695 9.0853 2.91052 7.70657 2.91052 6.00466C2.91052 5.18763 3.23455 4.40406 3.81132 3.82633C4.38809 3.2486 5.17035 2.92403 5.98603 2.92403C6.8017 2.92403 7.58397 3.2486 8.16074 3.82633C8.73751 4.40406 9.06154 5.18763 9.06154 6.00466ZM3.51391 2.80142C3.51391 3.19924 3.19326 3.51977 2.79676 3.51977C2.70263 3.51977 2.60942 3.5012 2.52245 3.46511C2.43548 3.42903 2.35646 3.37614 2.28989 3.30947C2.22333 3.24279 2.17053 3.16364 2.13451 3.07653C2.09848 2.98941 2.07994 2.89604 2.07994 2.80175C2.07994 2.70746 2.09848 2.6141 2.13451 2.52698C2.17053 2.43987 2.22333 2.36071 2.28989 2.29404C2.35646 2.22737 2.43548 2.17448 2.52245 2.1384C2.60942 2.10231 2.70263 2.08374 2.79676 2.08374C3.19326 2.08374 3.51391 2.40493 3.51391 2.80142Z" fill="#427DD4"/>
<path d="M7.98381 6.00466C7.98381 4.89948 7.08937 4.00355 5.98603 4.00355C4.88268 4.00355 3.98825 4.89948 3.98825 6.00466C3.98825 7.10985 4.88269 8.00577 5.98603 8.00577C7.08937 8.00577 7.98381 7.10985 7.98381 6.00466Z" fill="#427DD4"/>
</svg>
