<svg width="15" height="25" viewBox="0 0 15 25" fill="none" xmlns="http://www.w3.org/2000/svg">
<path d="M7.55208 0C5.48611 0 3.71094 0.683594 2.22656 2.05078C0.742188 3.41797 0 5.06185 0 6.98242V18.0176C0 19.9382 0.742188 21.582 2.22656 22.9492C3.71094 24.3164 5.48611 25 7.55208 25C9.60069 25 11.3542 24.3164 12.8125 22.9492C14.2708 21.582 15 19.9382 15 18.0176V6.98242C15 5.06185 14.2708 3.41797 12.8125 2.05078C11.3542 0.683594 9.60069 0 7.55208 0ZM13.3333 18.0176C13.3333 19.515 12.7691 20.7926 11.6406 21.8506C10.5122 22.9085 9.14931 23.4375 7.55208 23.4375C5.9375 23.4375 4.55295 22.9045 3.39844 21.8384C2.24392 20.7723 1.66667 19.4987 1.66667 18.0176V6.98242C1.66667 5.5013 2.24392 4.2277 3.39844 3.16162C4.55295 2.09554 5.9375 1.5625 7.55208 1.5625C9.14931 1.5625 10.5122 2.09147 11.6406 3.14941C12.7691 4.20736 13.3333 5.48503 13.3333 6.98242V18.0176ZM7.51302 4.6875C7.27865 4.6875 7.07899 4.76481 6.91406 4.91943C6.74913 5.07406 6.66667 5.25716 6.66667 5.46875V9.375C6.66667 9.58659 6.74913 9.76969 6.91406 9.92432C7.07899 10.0789 7.27865 10.1562 7.51302 10.1562C7.7474 10.1562 7.94271 10.0789 8.09896 9.92432C8.25521 9.76969 8.33333 9.58659 8.33333 9.375V5.46875C8.33333 5.25716 8.25521 5.07406 8.09896 4.91943C7.94271 4.76481 7.7474 4.6875 7.51302 4.6875Z" fill="white"/>
</svg>
