<svg width="10" height="12" viewBox="0 0 10 12" fill="none" xmlns="http://www.w3.org/2000/svg">
<path d="M1.18787 -5.19237e-08C1.38314 0.441294 1.52367 0.921524 1.57841 1.41618C1.26544 0.902615 0.77101 0.518029 0.187875 0.334576C0.481942 0.816489 0.688147 1.34443 0.797342 1.89497C0.545015 2.12506 0.343999 2.40336 0.206821 2.71251C0.0696434 3.02166 -0.000757454 3.35503 5.77648e-06 3.69186C5.83605e-06 5.05468 1.13314 6.1507 2.52367 6.1507C2.71894 6.1507 2.91421 6.12763 3.10208 6.09013C2.99261 8.13075 1.99261 9.95073 0.461544 11.1607C0.84781 11.3811 1.28762 11.4967 1.73521 11.4953C2.61095 11.4953 3.38314 11.0612 3.83728 10.3992C3.82152 10.7893 3.71154 11.1703 3.51628 11.5111L3.54734 11.5111C4.77367 11.5111 5.78994 10.666 6.02367 9.53972C6.08002 9.75119 6.10884 9.96874 6.10947 10.1872C6.10947 10.3473 6.0932 10.4987 6.07101 10.6516C7.07101 10.3401 7.79734 9.433 7.82101 8.35284C8.5 9.19793 8.89941 10.2565 8.89941 11.4058C8.89941 11.6121 8.89201 11.8024 8.86834 12C9.5858 10.9097 10 9.61615 10 8.22305C10 3.70052 6.15681 1.22581 2.82101 1.22581C2.71154 1.22581 2.60208 1.22581 2.49261 1.23302C2.13314 0.754236 1.68787 0.334576 1.18787 -5.19237e-08Z" fill="#427DD4"/>
</svg>
